<svg width="176" height="30" viewBox="0 0 176 30" fill="none" xmlns="http://www.w3.org/2000/svg">
<path d="M25.3875 23.8517C25.3875 28.1201 23.0059 30 18.5152 30H0.357776L1.48515 25.9085H18.3924C19.8653 25.9085 20.6414 25.5039 20.6414 23.8517V23.3955C20.6414 21.7442 19.8661 21.3387 18.3924 21.3387H6.87229C2.38082 21.3387 0 19.4597 0 15.1904V15.0037C0 10.7353 2.38082 8.85543 6.87229 8.85543H24.4509L23.3244 12.9469H6.9951C5.52223 12.9469 4.74609 13.3515 4.74609 15.0037V15.1904C4.74609 16.8418 5.52141 17.2472 6.9951 17.2472H18.5152C23.0067 17.2472 25.3875 19.1263 25.3875 23.3955V23.8517ZM53.5734 30H37.0911C32.4416 30 29.8536 27.9334 29.8536 23.4872V15.369C29.8536 10.9229 32.4408 8.85625 37.0911 8.85625H53.4523L52.3233 12.9477H37.2147C35.7025 12.9477 34.6014 13.63 34.6014 15.369V23.4872C34.6014 25.2262 35.7025 25.9094 37.2147 25.9094H52.4485L53.5734 30ZM78.5975 21.0487H62.5302V30H57.7833V8.85625H62.5302V17.0318H78.5975V8.85625H83.3436V30H78.5975V21.0487ZM144.357 30H127.875C123.226 30 120.638 27.9334 120.638 23.4872V15.369C120.638 10.9229 123.225 8.85625 127.875 8.85625H144.236L143.107 12.9477H127.999C126.487 12.9477 125.385 13.63 125.385 15.369V23.4872C125.385 25.2262 126.487 25.9094 127.999 25.9094H143.233L144.357 30ZM88.8912 23.4872V8.85625H93.6381V23.4872C93.6381 25.2262 94.7393 25.9094 96.2514 25.9094H108.204C109.716 25.9094 110.817 25.227 110.817 23.4872V8.85625H115.564V23.4872C115.564 27.9334 112.978 30 108.327 30H96.1286C91.4783 30 88.8912 27.9342 88.8912 23.4872ZM171.253 23.4872V15.369C171.253 13.63 170.152 12.9477 168.64 12.9477H155.038C153.525 12.9477 152.424 13.63 152.424 15.369V23.4872C152.424 25.2262 153.525 25.9094 155.038 25.9094H168.64C170.153 25.9094 171.253 25.227 171.253 23.4872ZM168.763 30H154.915C150.265 30 147.677 27.9334 147.677 23.4872V15.369C147.677 10.9229 150.265 8.85625 154.915 8.85625H168.763C173.412 8.85625 176 10.9229 176 15.369V23.4872C176 27.9334 173.412 30 168.763 30ZM98.656 0H105.798L104.298 5.8198H100.157L98.656 0ZM108.417 0H114.499L110.816 5.8198H106.518L108.417 0ZM89.9555 0H96.0377L97.9355 5.8198H93.6381L89.9555 0Z" fill="#262626"/>
</svg>
